<svg width="108" height="24" viewBox="0 0 108 24" fill="none" xmlns="http://www.w3.org/2000/svg">
<path d="M85.1676 23.3876C85.0454 23.2651 84.9775 23.1017 84.9775 22.911V20.9366C84.9775 20.746 85.0454 20.5826 85.1676 20.4464C85.2899 20.3103 85.4529 20.2422 85.643 20.2422H87.6125C87.8026 20.2422 87.9656 20.3103 88.0879 20.4464C88.2101 20.5826 88.278 20.746 88.278 20.9366V22.911C88.278 23.1017 88.2101 23.2651 88.0879 23.3876C87.9656 23.5102 87.8026 23.5783 87.6125 23.5783H85.643C85.4393 23.5783 85.2899 23.5102 85.1676 23.3876Z" fill="#6200EA"/>
<path d="M19.6421 9.43238C19.6446 9.22577 19.7268 9.0283 19.8711 8.88219C20.0155 8.73608 20.2105 8.65289 20.4147 8.65039H21.4734C21.6776 8.65289 21.8727 8.73608 22.017 8.88219C22.1614 9.0283 22.2436 9.22577 22.246 9.43238V17.0786C22.246 18.5654 22.5754 19.6756 23.234 20.4094C23.8926 21.1431 24.851 21.5109 26.1091 21.5127C27.3119 21.5127 28.2562 21.1449 28.942 20.4094C29.6279 19.6738 29.973 18.5636 29.9775 17.0786V9.43238C29.9807 9.22597 30.0632 9.02892 30.2075 8.88296C30.3516 8.73701 30.5463 8.65358 30.7503 8.65039H31.8089C32.0134 8.65218 32.2088 8.73513 32.3534 8.88142C32.4978 9.02767 32.5799 9.22553 32.5817 9.43238V22.9292C32.5799 23.136 32.4978 23.3339 32.3534 23.4801C32.2088 23.6264 32.0134 23.7094 31.8089 23.7112H30.7503C30.5463 23.708 30.3516 23.6245 30.2075 23.4786C30.0632 23.3326 29.9807 23.1356 29.9775 22.9292V22.0313C29.5488 22.5724 29.0249 23.0288 28.4324 23.3774C27.7611 23.7912 26.8436 23.998 25.6799 23.998C24.8388 24.0081 24.0035 23.8555 23.219 23.5484C22.487 23.2658 21.8254 22.8234 21.2814 22.2528C20.7374 21.6821 20.3242 20.9972 20.0713 20.2466C19.7731 19.3684 19.6278 18.4444 19.6421 17.5158V9.43238Z" fill="#6200EA"/>
<path d="M38.3279 5.57962C38.3255 5.78626 38.2434 5.9837 38.099 6.1298C37.9546 6.27594 37.7596 6.35913 37.5554 6.36163H35.9202C35.7174 6.35699 35.5245 6.27287 35.3819 6.12697C35.2393 5.98107 35.1581 5.78483 35.1557 5.57962V3.92459C35.1581 3.71798 35.2405 3.52051 35.3848 3.37441C35.5292 3.2283 35.7243 3.14511 35.9282 3.14258H37.5637C37.7676 3.14511 37.9627 3.2283 38.107 3.37441C38.2514 3.52051 38.3335 3.71798 38.3362 3.92459L38.3279 5.57962ZM38.0418 22.9285C38.0394 23.1351 37.957 23.3326 37.8127 23.4787C37.6683 23.6248 37.4732 23.708 37.2693 23.7105H36.2104C36.0062 23.708 35.8111 23.6248 35.6668 23.4787C35.5224 23.3326 35.4403 23.1351 35.4379 22.9285V9.43172C35.4403 9.22508 35.5224 9.02764 35.6668 8.88153C35.8111 8.7354 36.0062 8.65221 36.2104 8.6497H37.2693C37.4732 8.65221 37.6683 8.7354 37.8127 8.88153C37.957 9.02764 38.0394 9.22508 38.0418 9.43172V22.9285Z" fill="#6200EA"/>
<path d="M43.5073 22.9283C43.5049 23.1349 43.4228 23.3323 43.2784 23.4785C43.1341 23.6246 42.939 23.7078 42.7348 23.7103H41.6759C41.4719 23.7078 41.2769 23.6246 41.1325 23.4785C40.9882 23.3323 40.9058 23.1349 40.9034 22.9283V3.9285C40.9058 3.72186 40.9882 3.52442 41.1325 3.37831C41.2769 3.23218 41.4719 3.14899 41.6759 3.14648H42.7348C42.939 3.14899 43.1341 3.23218 43.2784 3.37831C43.4228 3.52442 43.5049 3.72186 43.5073 3.9285V22.9283Z" fill="#6200EA"/>
<path d="M52.1494 8.35985C53.3304 8.35985 54.2746 8.56717 54.9822 8.98185C55.5985 9.32063 56.1427 9.77843 56.5847 10.3293V3.9285C56.5874 3.72186 56.6695 3.52442 56.8138 3.37831C56.9582 3.23218 57.1533 3.14899 57.3575 3.14648H58.4161C58.6203 3.14899 58.8154 3.23218 58.9597 3.37831C59.1041 3.52442 59.1862 3.72186 59.1889 3.9285V22.9282C59.1862 23.1349 59.1041 23.3323 58.9597 23.4784C58.8154 23.6246 58.6203 23.7078 58.4161 23.7103H57.3575C57.1533 23.7078 56.9582 23.6246 56.8138 23.4784C56.6695 23.3323 56.5874 23.1349 56.5847 22.9282V22.0304C56.1439 22.6036 55.586 23.074 54.9496 23.4096C54.2464 23.8013 53.3129 23.9971 52.1494 23.9971C51.2921 24.0044 50.4416 23.8419 49.6463 23.5185C48.8853 23.2074 48.1976 22.7374 47.6282 22.1393C47.0371 21.5111 46.5708 20.7736 46.2548 19.9671C45.8955 19.0529 45.6907 18.0841 45.6483 17.1012C45.6293 16.8115 45.6195 16.4975 45.6195 16.1592C45.6195 15.8208 45.6293 15.5073 45.6483 15.2186C45.6886 14.2355 45.8919 13.2663 46.2491 12.3512C46.566 11.5516 47.0344 10.8226 47.6282 10.2052C48.2012 9.61588 48.8883 9.15249 49.6463 8.84393C50.4413 8.51873 51.2918 8.35428 52.1494 8.35985ZM56.5847 17.4253C56.604 17.1356 56.6135 16.7541 56.6135 16.2805C56.6135 15.807 56.604 15.4259 56.5847 15.1372C56.5275 13.7663 56.1223 12.7089 55.3693 11.9651C54.6161 11.2212 53.6384 10.8497 52.4355 10.8507C51.181 10.8507 50.1903 11.2561 49.4637 12.0671C48.7368 12.8781 48.3363 13.9787 48.2616 15.3689C48.2427 15.9095 48.2427 16.4502 48.2616 16.9908C48.3381 18.381 48.7386 19.4816 49.4637 20.2926C50.1885 21.1036 51.1792 21.5109 52.4355 21.5146C53.6165 21.5146 54.5894 21.1468 55.3542 20.4112C56.1193 19.6757 56.5293 18.6803 56.5847 17.4253Z" fill="#6200EA"/>
<path d="M61.3632 14.7323C61.4346 13.8716 61.6495 13.0294 61.9993 12.2415C62.3278 11.4917 62.7831 10.8056 63.3443 10.2141C63.9081 9.62745 64.5849 9.16415 65.3325 8.85282C66.1542 8.51514 67.0346 8.34771 67.9215 8.36043C68.8657 8.34417 69.8036 8.51615 70.6823 8.86661C71.4717 9.1916 72.179 9.69165 72.752 10.3299C73.3443 11.0019 73.7925 11.7909 74.0681 12.647C74.3842 13.6261 74.5389 14.6512 74.5261 15.6812V16.4632C74.5238 16.6698 74.4414 16.8673 74.297 17.0134C74.1526 17.1595 73.9576 17.2427 73.7536 17.2452H63.9072V17.419C63.9454 18.732 64.3409 19.7406 65.0941 20.4449C65.8471 21.1493 66.7877 21.506 67.9159 21.5152C68.9653 21.5152 69.752 21.3653 70.2761 21.0656C70.7519 20.8054 71.182 20.4681 71.5502 20.067C71.6667 19.9406 71.8019 19.8332 71.9507 19.7485C72.114 19.6814 72.2898 19.6517 72.4659 19.6615H73.3244C73.5372 19.6627 73.7418 19.7455 73.8965 19.8932C73.9769 19.9577 74.0379 20.0433 74.0735 20.1406C74.1088 20.2379 74.1168 20.3432 74.0969 20.4449C74.0133 20.8556 73.8479 21.2447 73.6105 21.5883C73.301 22.0462 72.9073 22.4395 72.4508 22.7468C71.8695 23.1406 71.2327 23.4433 70.5622 23.6447C69.7031 23.898 68.8106 24.017 67.9159 23.9977C67.0319 24.0115 66.1548 23.8386 65.3408 23.4902C64.5937 23.1637 63.9176 22.6913 63.3511 22.1C62.776 21.4941 62.3141 20.7875 61.9887 20.0146C61.6377 19.1822 61.4248 18.2968 61.359 17.3942C61.2651 16.5093 61.2665 15.6168 61.3632 14.7323ZM63.9099 14.8192H71.9495V14.7323C71.9495 13.5545 71.5819 12.6129 70.8471 11.9077C70.1122 11.2025 69.1346 10.8503 67.9147 10.8513C67.3874 10.8468 66.8636 10.9403 66.3694 11.1271C65.904 11.3034 65.4765 11.5689 65.1104 11.9091C64.7426 12.2547 64.4503 12.6742 64.252 13.1407C64.0373 13.644 63.9202 14.1843 63.9072 14.7323L63.9099 14.8192Z" fill="#6200EA"/>
<path d="M84.1125 8.65039C84.3177 8.65108 84.5145 8.73349 84.6604 8.87978C84.8062 9.02609 84.8892 9.22457 84.8919 9.43238V10.3592C84.8895 10.5658 84.8071 10.7633 84.6627 10.9094C84.5184 11.0555 84.3233 11.1387 84.1194 11.1412H82.4528C80.2633 11.1412 79.1689 12.2515 79.1689 14.4719V22.9292C79.1662 23.1358 79.0841 23.3332 78.9397 23.4793C78.7954 23.6254 78.6003 23.7086 78.3961 23.7111H77.3375C77.1333 23.7086 76.9382 23.6254 76.7938 23.4793C76.6495 23.3332 76.5674 23.1358 76.5647 22.9292V9.43238C76.5674 9.22577 76.6495 9.0283 76.7938 8.88219C76.9382 8.73608 77.1333 8.65289 77.3375 8.65039H78.3961C78.6003 8.65289 78.7954 8.73608 78.9397 8.88219C79.0841 9.0283 79.1662 9.22577 79.1689 9.43238V10.3302C79.5041 9.79146 79.9743 9.35183 80.5313 9.05587C81.0646 8.78554 81.7609 8.65039 82.6203 8.65039H84.1125Z" fill="#6200EA"/>
<path fill-rule="evenodd" clip-rule="evenodd" d="M9.43347 0H0V23.7276H9.83001L10.0085 23.7263L10.1856 23.7207L10.3614 23.7138L10.5359 23.7042L10.7089 23.6904L10.8792 23.6738L11.0482 23.6559L11.2172 23.6339L11.382 23.609L11.5469 23.5814L11.7091 23.5511L11.8699 23.518L12.0293 23.4808L12.186 23.4421L12.3413 23.4008L12.494 23.3553L12.6452 23.3084L12.7951 23.2573L12.9423 23.2036L13.0867 23.1484L13.2298 23.0891L13.3715 23.027L13.5105 22.9636L13.6467 22.896L13.7816 22.8256L13.9124 22.7525L14.0433 22.6767L14.17 22.5994L14.2953 22.5181L14.418 22.434L14.5392 22.3471L14.6564 22.2574L14.7723 22.1664L14.8854 22.0712L14.9957 21.9733L15.1034 21.8726L15.2097 21.7706L15.3118 21.6644L15.4113 21.5568L15.5095 21.4451L15.6035 21.332L15.6961 21.2147L15.7847 21.0961L15.8705 20.9748L15.955 20.8493L16.0354 20.7224L16.1131 20.5927L16.1867 20.4603L16.2589 20.3266L16.3284 20.1886L16.3938 20.0479L16.4565 19.9045L16.5151 19.7597L16.5709 19.6121L16.6241 19.4618L16.6745 19.3087L16.7222 19.1529L16.7644 18.9942L16.8053 18.8329L16.8421 18.6701L16.8748 18.5032L16.9061 18.335L16.932 18.164L16.9552 17.9902L16.9756 17.8137L16.992 17.6357L17.0043 17.4537L17.0138 17.2703L17.0192 17.0841L17.0206 16.8951L17.0165 16.662L17.007 16.4331L16.9906 16.211L16.9688 15.9945L16.9402 15.7849L16.9048 15.5808L16.8653 15.3822L16.8203 15.1891L16.7699 15.0029L16.7154 14.8208L16.6554 14.6443L16.59 14.4733L16.5219 14.3077L16.4483 14.1478L16.372 13.9933L16.2916 13.843L16.2071 13.6982L16.1199 13.5575L16.03 13.4223L15.9359 13.2926L15.8406 13.1671L15.7411 13.0458L15.6416 12.9286L15.5381 12.8168L15.4345 12.7093L15.3282 12.6058L15.2206 12.5065L15.1115 12.4114L15.0012 12.3203L14.8908 12.2321L14.7804 12.1493L14.6687 12.0707L14.557 11.9948L14.4452 11.9231L14.2231 11.7893L14.0037 11.6694L13.7884 11.5632L13.8879 11.5135L14.095 11.399L14.3076 11.2625L14.5242 11.1066L14.6333 11.0198L14.7423 10.9301L14.8513 10.8335L14.9603 10.7329L15.0679 10.6267L15.1756 10.5164L15.2805 10.4005L15.3855 10.2791L15.4876 10.155L15.5871 10.024L15.6839 9.88881L15.7792 9.74952L15.8705 9.6047L15.9591 9.45576L16.045 9.30129L16.1254 9.14267L16.2017 8.97992L16.2739 8.81166L16.342 8.6379L16.4033 8.46136L16.4606 8.27928L16.5124 8.0931L16.5587 7.90278L16.5968 7.70692L16.6295 7.50832L16.6554 7.30284L16.6745 7.09456L16.6867 6.88217L16.6908 6.66565L16.6881 6.49185L16.684 6.31945L16.6759 6.14982L16.665 5.98293L16.65 5.81604L16.6323 5.65192L16.6118 5.49057L16.5873 5.33059L16.56 5.17198L16.5287 5.01613L16.496 4.86166L16.4592 4.70856L16.4183 4.55822L16.3761 4.41066L16.3297 4.26446L16.2807 4.12103L16.2289 3.97898L16.1731 3.83829L16.1158 3.70177L16.0531 3.56522L15.9891 3.43281L15.9223 3.3018L15.8514 3.17216L15.7792 3.04663L15.7029 2.92113L15.6239 2.79976L15.5422 2.67977L15.4563 2.56254L15.3691 2.44807L15.2778 2.33497L15.1838 2.22464L15.0884 2.11706L14.9889 2.01086L14.8867 1.9088L14.7818 1.80812L14.6742 1.7102L14.5638 1.61504L14.4493 1.52125L14.3335 1.4316L14.2149 1.34333L14.0937 1.25783L13.9683 1.17507L13.8416 1.09508L13.7121 1.01784L13.58 0.943367L13.4451 0.87165L13.3061 0.801312L13.1657 0.73511L13.0227 0.671668L12.8768 0.609602L12.7297 0.551677L12.5784 0.49651L12.4244 0.4441L12.2691 0.39445L12.1097 0.347557L11.9489 0.303424L11.7854 0.262047L11.6192 0.223429L11.4502 0.18757L11.2799 0.155849L11.1054 0.126886L10.9296 0.100681L10.7512 0.0772347L10.5699 0.0565469L10.3859 0.0399967L10.2006 0.0248255L10.0126 0.0137919L9.82183 0.00689596L9.62971 0.00137919L9.43347 0Z" fill="#6200EA"/>
<path d="M92.4343 23.2912C91.6465 22.9099 91.0217 22.3925 90.5463 21.7389C90.0845 21.0853 89.8536 20.35 89.8536 19.5466C89.8536 18.2939 90.3697 17.259 91.3884 16.4556C92.4071 15.6523 93.8197 15.1212 95.5854 14.8489L99.864 14.2497V13.4191C99.864 11.4583 98.7366 10.4779 96.4683 10.4779C95.599 10.4779 94.8927 10.6549 94.363 11.009C93.8333 11.363 93.4394 11.7715 93.1949 12.2481C93.1134 12.4387 93.0319 12.5613 92.9504 12.6294C92.8689 12.6974 92.7467 12.7247 92.5973 12.7247H91.4835C91.3069 12.7247 91.1711 12.6566 91.0353 12.534C90.913 12.4115 90.8451 12.2617 90.8451 12.0847C90.8451 11.649 91.0488 11.1315 91.4563 10.5596C91.8638 9.97412 92.5022 9.4703 93.3579 9.04819C94.2136 8.62607 95.2595 8.4082 96.4955 8.4082C98.6279 8.4082 100.149 8.8984 101.073 9.89242C101.996 10.8864 102.458 12.1255 102.458 13.6098V22.8963C102.458 23.0869 102.39 23.2503 102.268 23.3729C102.146 23.4954 101.983 23.5635 101.793 23.5635H100.543C100.353 23.5635 100.204 23.4954 100.081 23.3729C99.9726 23.2503 99.9047 23.0869 99.9047 22.8963V21.6436C99.4836 22.2699 98.8724 22.801 98.0846 23.2095C97.2968 23.618 96.2646 23.8359 95.0014 23.8359C94.0914 23.8631 93.2221 23.6725 92.4343 23.2912ZM98.6687 20.5406C99.4701 19.7236 99.864 18.5254 99.864 16.9731V16.1697L96.5226 16.6599C95.1508 16.8505 94.1185 17.1773 93.4122 17.6267C92.7059 18.0896 92.3528 18.6615 92.3528 19.3424C92.3528 20.1185 92.6652 20.7313 93.3036 21.1398C93.9419 21.5619 94.7026 21.7661 95.5718 21.7661C96.8486 21.7661 97.8673 21.3576 98.6687 20.5406Z" fill="#6200EA"/>
<path d="M105.161 5.71188C105.039 5.58934 104.971 5.42594 104.971 5.2353V3.75109C104.971 3.56046 105.039 3.39706 105.161 3.26089C105.283 3.12472 105.446 3.05664 105.637 3.05664H107.307C107.497 3.05664 107.66 3.12472 107.796 3.26089C107.932 3.39706 108 3.56046 108 3.75109V5.24892C108 5.43955 107.932 5.60295 107.796 5.7255C107.66 5.84805 107.497 5.91613 107.307 5.91613H105.623C105.433 5.90252 105.283 5.83443 105.161 5.71188ZM105.379 23.3863C105.256 23.2637 105.188 23.1003 105.188 22.9097V9.36114C105.188 9.17051 105.256 9.00711 105.379 8.88456C105.501 8.76201 105.664 8.69393 105.854 8.69393H107.104C107.294 8.69393 107.457 8.76201 107.579 8.88456C107.701 9.00711 107.769 9.17051 107.769 9.36114V22.9097C107.769 23.1003 107.701 23.2637 107.579 23.3863C107.457 23.5088 107.294 23.5769 107.104 23.5769H105.854C105.664 23.5769 105.514 23.5088 105.379 23.3863Z" fill="#6200EA"/>
</svg>
